<?xml version="1.0" standalone="no"?>
<!DOCTYPE svg PUBLIC "-//W3C//DTD SVG 20010904//EN"
 "http://www.w3.org/TR/2001/REC-SVG-20010904/DTD/svg10.dtd">
<svg version="1.0" xmlns="http://www.w3.org/2000/svg"
 width="672.000000pt" height="672.000000pt" viewBox="0 0 672.000000 672.000000"
 preserveAspectRatio="xMidYMid meet">
<metadata>
Created by potrace 1.14, written by Peter Selinger 2001-2017
</metadata>
<g transform="translate(0.000000,672.000000) scale(0.100000,-0.100000)"
fill="#000000" stroke="none">
<path d="M2517 5614 c-1 -1 -28 -5 -59 -8 -83 -8 -173 -33 -255 -71 -90 -41
-126 -68 -231 -170 -543 -522 -738 -786 -768 -1040 -13 -105 -61 -157 -276
-299 -197 -129 -293 -224 -411 -406 -115 -178 -201 -384 -231 -555 -3 -16 -8
-41 -11 -55 -25 -123 -26 -484 -2 -590 2 -8 8 -33 12 -55 11 -50 10 -46 19
-70 40 -105 56 -138 100 -208 62 -98 69 -107 171 -215 64 -67 173 -165 271
-241 91 -71 260 -174 411 -250 152 -76 234 -114 431 -197 17 -8 47 -20 65 -28
235 -103 597 -234 908 -330 l85 -26 645 0 c548 0 652 3 699 16 30 8 89 24 130
35 186 51 694 230 845 299 11 5 77 34 146 64 229 100 549 260 557 279 2 4 8 7
13 7 18 0 203 129 279 194 74 64 223 221 264 280 77 107 164 295 180 386 3 14
5 25 6 25 1 0 3 9 6 20 25 123 25 369 0 505 -22 124 -66 302 -77 314 -5 6 -9
22 -9 36 0 14 -4 30 -8 36 -5 5 -15 25 -22 44 -94 250 -270 479 -475 615 -115
75 -198 138 -257 193 -49 45 -53 55 -62 157 -6 61 -36 155 -70 223 -29 58
-155 247 -185 279 -12 12 -21 25 -21 28 0 3 -8 13 -17 23 -10 10 -43 47 -73
82 -138 161 -435 462 -505 512 -208 150 -452 188 -714 112 -31 -8 -69 -22 -86
-29 -60 -26 -91 -36 -115 -37 -17 -1 -112 11 -144 18 -120 27 -454 23 -581 -6
-67 -16 -96 -12 -170 25 -73 35 -156 60 -234 71 -43 6 -170 12 -174 8z m154
-164 c170 -43 383 -191 539 -375 129 -152 150 -199 145 -332 l-4 -93 27 -5
c15 -3 40 -10 56 -15 38 -12 49 -4 41 29 -22 85 -4 216 40 296 28 50 85 110
145 155 32 24 85 67 140 113 49 40 145 122 164 140 74 65 208 93 351 73 230
-32 278 -58 465 -246 362 -365 515 -549 601 -720 84 -169 94 -256 42 -367 -18
-39 -11 -68 15 -58 60 23 97 9 184 -71 18 -16 96 -73 173 -124 211 -142 321
-262 418 -456 34 -67 109 -276 122 -337 6 -31 13 -66 20 -104 29 -146 36 -292
21 -418 -26 -223 -131 -438 -294 -603 -126 -127 -218 -195 -437 -327 -135 -82
-422 -225 -449 -225 -9 0 -16 -4 -16 -8 0 -5 -6 -9 -13 -9 -10 0 -8 21 9 91
35 143 21 312 -31 380 -23 30 -30 12 -26 -72 8 -193 5 -246 -17 -294 -50 -112
-118 -164 -357 -268 -89 -38 -390 -145 -438 -155 -10 -2 -27 -7 -38 -10 -10
-3 -28 -8 -39 -11 -45 -12 -16 25 54 70 119 76 234 212 296 350 47 103 64 182
63 296 -1 134 -1 134 -19 119 -25 -20 -35 -55 -49 -159 -35 -258 -154 -437
-378 -568 -79 -46 -220 -99 -317 -118 -14 -3 -32 -7 -40 -9 -23 -7 -100 -18
-215 -32 -127 -15 -448 -8 -560 12 -16 3 -56 10 -87 16 -163 28 -355 99 -456
167 -98 66 -193 177 -244 282 -28 59 -64 166 -72 215 -3 17 -7 41 -11 55 -3
14 -6 48 -6 77 -2 87 -39 112 -54 36 -17 -89 -5 -202 32 -313 50 -151 122
-257 238 -352 93 -77 95 -78 103 -78 4 -1 20 -11 35 -24 29 -23 29 -23 6 -29
-21 -6 -68 10 -384 130 -314 120 -428 191 -485 304 -33 63 -43 153 -28 244 12
72 17 165 9 169 -10 7 -51 -58 -67 -104 -20 -58 -19 -180 1 -280 11 -50 18
-110 13 -110 -5 0 -52 23 -218 104 -298 145 -502 284 -665 452 -164 170 -253
317 -298 494 -21 84 -24 113 -21 245 1 83 5 161 7 175 3 14 10 52 17 85 6 33
14 74 17 90 3 17 9 38 14 48 5 9 7 17 4 17 -3 0 1 16 9 35 9 20 15 39 16 43 8
79 172 422 202 422 4 0 8 5 8 10 0 15 76 98 150 163 17 16 78 58 133 94 91 59
209 145 245 180 46 44 101 51 141 18 43 -37 54 -24 30 33 -43 100 -44 229 -2
334 20 52 83 162 95 166 4 2 8 10 8 18 0 8 5 14 10 14 6 0 10 6 10 14 0 8 4
16 9 18 5 2 33 32 61 68 135 169 515 555 613 622 149 101 317 137 468 98z
m894 -84 c44 -3 91 -8 105 -10 50 -10 111 -29 115 -36 6 -9 -56 -66 -143 -133
-99 -75 -163 -139 -197 -196 -29 -49 -45 -63 -45 -40 0 34 -89 135 -202 230
-112 93 -139 121 -128 134 6 7 38 20 72 30 109 30 209 35 423 21z"/>
<path d="M2680 5196 c-420 -180 -785 -481 -930 -766 -13 -25 -22 -46 -22 -47
1 -2 -5 -17 -12 -35 -8 -18 -17 -59 -21 -90 -9 -73 3 -75 59 -11 51 59 201
210 241 243 130 110 264 162 415 160 102 0 111 -2 225 -30 260 -65 425 -205
511 -435 54 -143 52 -140 78 -104 17 25 16 112 -2 144 -6 11 -19 42 -28 68
-45 127 -164 246 -324 324 -38 19 -207 72 -249 79 -20 3 -45 7 -56 9 -11 2
-26 4 -32 4 -24 2 -13 31 14 42 27 10 54 39 47 50 -7 11 -117 0 -194 -20 -97
-25 -266 -100 -342 -153 -14 -10 -29 -18 -32 -18 -4 0 -20 -10 -36 -22 -55
-40 -51 2 7 72 59 72 141 144 233 206 110 72 448 244 482 244 23 0 130 -64
136 -81 2 -5 9 -9 16 -9 17 0 135 -123 172 -180 38 -57 66 -113 84 -167 14
-44 45 -81 57 -69 16 16 6 114 -17 162 -64 136 -158 247 -286 341 -41 30 -71
61 -82 85 -9 21 -21 37 -27 37 -5 -1 -44 -15 -85 -33z"/>
<path d="M4064 5165 c-23 -7 -48 -17 -55 -23 -8 -7 -45 -35 -84 -64 -82 -61
-151 -129 -195 -193 -62 -89 -118 -244 -105 -286 14 -42 38 -14 93 103 47 103
82 155 148 224 104 107 223 179 274 164 26 -8 284 -138 375 -189 72 -41 161
-109 214 -163 53 -54 128 -155 120 -162 -2 -2 -38 16 -79 40 -191 113 -319
159 -467 170 -86 7 -93 -3 -28 -42 25 -14 45 -30 45 -34 0 -4 -24 -12 -52 -16
-29 -4 -60 -9 -68 -10 -8 -2 -28 -5 -45 -8 -102 -17 -234 -71 -320 -131 -162
-114 -251 -268 -243 -422 2 -47 8 -77 18 -85 8 -7 12 -9 8 -5 -8 11 24 123 56
192 87 192 243 306 505 371 216 53 344 48 482 -20 100 -50 158 -98 311 -258
78 -81 144 -145 148 -143 7 5 6 18 -5 83 -4 23 -12 45 -16 48 -5 3 -7 9 -4 14
3 4 -2 13 -10 20 -8 7 -15 18 -15 24 0 17 -86 182 -115 220 -14 18 -25 35 -25
38 0 10 -53 70 -135 153 -112 112 -243 201 -430 294 -197 98 -244 113 -301 96z"/>
<path d="M2213 4384 c-223 -36 -442 -175 -517 -329 -26 -52 -30 -72 -30 -145
-1 -99 12 -129 81 -196 72 -71 271 -155 398 -170 17 -2 41 -6 55 -9 28 -6 243
-7 275 -1 11 2 43 7 70 10 82 12 97 15 177 35 152 39 297 125 353 210 52 77
47 152 -15 269 -30 57 -130 172 -149 172 -6 0 -14 6 -18 13 -19 29 -153 91
-247 114 -162 39 -302 48 -433 27z m-151 -181 c-39 -76 -59 -165 -56 -248 3
-80 4 -89 18 -135 11 -36 48 -112 64 -131 11 -15 10 -19 -8 -32 -32 -22 -71
-13 -156 35 -86 49 -159 110 -180 150 -38 74 3 181 116 298 74 76 107 95 176
99 l45 2 -19 -38z m329 -53 c108 -78 59 -231 -78 -242 -39 -3 -84 17 -106 47
-19 26 -38 110 -28 121 3 3 6 9 6 12 2 22 30 52 67 71 50 24 95 21 139 -9z"/>
<path d="M4203 4365 c-86 -15 -157 -38 -221 -72 -171 -90 -315 -272 -314 -397
0 -68 21 -108 87 -171 95 -90 307 -175 505 -201 123 -16 369 -8 448 15 17 5
32 8 32 6 0 -7 84 25 155 60 139 67 229 175 227 272 -2 60 -84 230 -144 295
-36 38 -138 118 -152 118 -2 0 -21 8 -42 17 -22 9 -43 18 -49 19 -86 24 -127
34 -160 39 -73 13 -299 12 -372 0z m598 -156 c121 -60 237 -202 252 -309 9
-62 -43 -133 -147 -201 -59 -39 -167 -79 -211 -79 l-23 0 28 59 c68 140 74
160 74 271 0 78 -28 184 -66 245 -38 63 -13 67 93 14z m-565 -64 c25 -20 34
-35 40 -70 10 -71 -11 -115 -68 -143 -47 -24 -48 -24 -93 -6 -27 10 -60 33
-79 56 -30 34 -32 43 -26 77 8 45 44 93 80 109 38 17 109 5 146 -23z m-450
-253 c6 -34 8 -62 5 -62 -17 0 -40 27 -42 50 -8 97 20 106 37 12z"/>
<path d="M3023 3587 c-13 -5 -23 -14 -23 -19 0 -4 -7 -8 -15 -8 -8 0 -15 -3
-15 -7 0 -8 -22 -22 -135 -83 -66 -36 -225 -103 -225 -94 0 2 -11 -1 -25 -6
-36 -14 -110 -23 -190 -24 -182 -4 -354 55 -532 180 -34 24 -64 44 -68 44 -14
0 42 -83 79 -118 73 -68 227 -139 336 -156 99 -15 142 -18 215 -19 98 0 129 5
236 39 199 63 337 152 376 243 17 39 15 42 -14 28z"/>
<path d="M3755 3559 c-6 -19 4 -32 81 -99 152 -131 363 -204 587 -202 240 2
403 62 530 196 57 61 60 74 9 42 -111 -70 -256 -129 -382 -155 -81 -17 -230
-20 -290 -7 -71 16 -117 28 -145 40 -103 46 -137 63 -218 112 -50 30 -93 54
-97 54 -4 0 -13 6 -19 14 -20 24 -50 26 -56 5z"/>
<path d="M3168 3273 c-16 -15 -16 -18 -1 -44 23 -39 58 -56 78 -39 21 17 12
56 -18 81 -28 23 -38 23 -59 2z"/>
<path d="M3560 3246 c-15 -44 -12 -56 13 -56 28 0 48 15 72 52 16 27 16 27 -7
33 -45 10 -67 2 -78 -29z"/>
<path d="M2097 3046 c-128 -65 -262 -195 -321 -311 -51 -103 -38 -138 24 -63
19 23 56 65 82 92 71 72 61 83 240 -264 72 -138 105 -202 221 -420 65 -123 95
-166 150 -217 83 -76 183 -112 299 -107 94 4 88 2 301 75 167 56 189 61 272
62 122 1 114 3 356 -86 260 -96 434 -80 570 53 59 57 90 106 191 300 53 101
103 194 183 335 43 77 89 160 102 185 13 25 35 58 48 74 36 42 62 30 130 -58
31 -41 68 -82 81 -91 23 -15 24 -14 24 7 0 37 -64 154 -126 229 -85 104 -205
193 -286 213 -47 11 -33 -13 57 -99 47 -44 85 -86 85 -93 0 -6 -12 -15 -27
-18 -51 -13 -237 -114 -368 -202 -71 -47 -132 -90 -135 -94 -8 -11 -152 -76
-186 -84 -16 -3 -66 -9 -111 -11 -71 -4 -101 0 -220 30 -213 55 -347 63 -553
32 -45 -6 -58 -9 -155 -35 -143 -39 -274 -31 -380 22 -47 24 -199 128 -203
140 -2 4 -8 8 -13 8 -6 0 -33 18 -62 39 -82 62 -195 125 -279 155 l-77 28 14
28 c8 15 34 43 57 61 59 47 74 61 87 86 22 43 16 43 -72 -1z m694 -1027 c44
-31 87 -103 82 -133 -8 -39 -35 -56 -96 -60 -69 -4 -167 26 -209 66 -26 24
-29 33 -24 60 8 38 21 55 60 75 68 36 129 33 187 -8z m1336 -11 c154 -77 70
-194 -134 -187 -109 3 -142 31 -122 102 18 66 107 121 179 111 19 -3 54 -14
77 -26z"/>
</g>
</svg>
